# xmcd
#
# Track frame offsets: 
#        150
#        12557
#        23682
#        35342
#        45232
#        57277
#        68502
#        78382
#        89407
#        101612
#        114402
#        125132
#        136540
#        147240
#        160160
#        169282
#        181452
#        193500
#        204857
#        215502
#        227595
#        242905
#        254722
#        266345
#        277135
#        287890
#        299920
#
# Disc length: 4168 seconds
#
# Revision: 3
# Processed by: cddbd v1.5.2PL0 Copyright (c) Steve Scherf et al.
# Submitted via: ExactAudioCopy v1.1
#
DISCID=9210461b
DTITLE=Kitty Wells - The Queen Of Country Music - Disc 3
DYEAR=1993
DGENRE=Country
TTITLE0=Kitty Wells and Webb Pierce - Oh! So Many Years (mono)
TTITLE1=Kitty Wells and Webb Pierce - One Week Later (mono)
TTITLE2=Kitty Wells and Webb Pierce - When I'm With You (mono)
TTITLE3=Kitty Wells and Webb Pierce - Can You Find It In Your Heart (mon
TTITLE3=o)
TTITLE4=Repenting (mono)
TTITLE5=I Guess I'll Go On Dreaming (mono)
TTITLE6=Each Day (mono)
TTITLE7=The Pace That Kills (mono)
TTITLE8=A Change Of Heart (mono)
TTITLE9=Stubborn Heart (mono)
TTITLE10=Standing Room Only (mono)
TTITLE11=A Mansion On The Hill (mono)
TTITLE12=Your Wild Life's Gonna Get You Down (mono)
TTITLE13=Right Or Wrong (mono)
TTITLE14=The Winner Of Your Heart (mono)
TTITLE15=Dancing With A Stranger (mono)
TTITLE16=Three Ways (To Love You) (mono)
TTITLE17=She's No Angel (mono)
TTITLE18=Kitty Wells and Ray Crisp - Broken Marriage Vows (mono)
TTITLE19=What About You (mono)
TTITLE20=Sweeter Than The Flowers (mono)
TTITLE21=You Can't Conceal A Broken Heart (mono)
TTITLE22=Just When I Needed You (mono)
TTITLE23=Lonely Street (mono)
TTITLE24=That's Me Without You (mono)
TTITLE25=Cheated Out Of Love (mono)
TTITLE26=The Waltz Of The Angels (mono)
EXTD=YEAR: 1993
EXTT0=
EXTT1=
EXTT2=
EXTT3=
EXTT4=
EXTT5=
EXTT6=
EXTT7=
EXTT8=
EXTT9=
EXTT10=
EXTT11=
EXTT12=
EXTT13=
EXTT14=
EXTT15=
EXTT16=
EXTT17=
EXTT18=
EXTT19=
EXTT20=
EXTT21=
EXTT22=
EXTT23=
EXTT24=
EXTT25=
EXTT26=
PLAYORDER=
